<svg width="20" height="21" viewBox="0 0 20 21" fill="none" xmlns="http://www.w3.org/2000/svg">
<path fill-rule="evenodd" clip-rule="evenodd" d="M16.75 4.5H10.75V1.5C10.75 1.08579 10.4142 0.75 10 0.75C9.58579 0.75 9.25 1.08579 9.25 1.5V4.5H3.25C1.59315 4.5 0.25 5.84315 0.25 7.5V18C0.25 19.6569 1.59315 21 3.25 21H16.75C18.4069 21 19.75 19.6569 19.75 18V7.5C19.75 5.84315 18.4069 4.5 16.75 4.5V4.5ZM18.25 18C18.25 18.8284 17.5784 19.5 16.75 19.5H3.25C2.42157 19.5 1.75 18.8284 1.75 18V7.5C1.75 6.67157 2.42157 6 3.25 6H16.75C17.5784 6 18.25 6.67157 18.25 7.5V18ZM13.375 12.75H6.625C5.17525 12.75 4 13.9253 4 15.375C4 16.8247 5.17525 18 6.625 18H13.375C14.8247 18 16 16.8247 16 15.375C16 13.9253 14.8247 12.75 13.375 12.75V12.75ZM10.75 14.25V16.5H9.25V14.25H10.75ZM5.5 15.375C5.5 14.7537 6.00368 14.25 6.625 14.25H7.75V16.5H6.625C6.00368 16.5 5.5 15.9963 5.5 15.375V15.375ZM13.375 16.5H12.25V14.25H13.375C13.9963 14.25 14.5 14.7537 14.5 15.375C14.5 15.9963 13.9963 16.5 13.375 16.5V16.5ZM4.75 10.125C4.75 9.50368 5.25368 9 5.875 9C6.49632 9 7 9.50368 7 10.125C7 10.7463 6.49632 11.25 5.875 11.25C5.25368 11.25 4.75 10.7463 4.75 10.125V10.125ZM13 10.125C13 9.50368 13.5037 9 14.125 9C14.7463 9 15.25 9.50368 15.25 10.125C15.25 10.7463 14.7463 11.25 14.125 11.25C13.5037 11.25 13 10.7463 13 10.125V10.125Z" fill="#121417"/>
</svg>
