<svg width="191" height="24" viewBox="0 0 191 24" fill="none" xmlns="http://www.w3.org/2000/svg">
<g clip-path="url(#clip0_1_5874)">
<path fill-rule="evenodd" clip-rule="evenodd" d="M1.33333 18.146C1.33333 18.146 4.69873 16.0248 8 17.7231C11.6888 19.6208 14.6667 18.0693 14.6667 18.0693V6.33711C14.6667 6.33711 11.6893 7.8859 8.00103 5.98971C4.69903 4.29209 1.33333 6.42365 1.33333 6.42365V18.146Z" fill="#121417"/>
</g>
<path d="M33.1378 18.5V5.40909H38.3026C39.2955 5.40909 40.1413 5.59872 40.8402 5.97798C41.5391 6.35298 42.0717 6.875 42.4382 7.54403C42.8089 8.20881 42.9943 8.97585 42.9943 9.84517C42.9943 10.7145 42.8068 11.4815 42.4318 12.1463C42.0568 12.8111 41.5135 13.3288 40.8018 13.6996C40.0945 14.0703 39.2379 14.2557 38.2322 14.2557H34.9403V12.0376H37.7848C38.3175 12.0376 38.7564 11.946 39.1016 11.7628C39.451 11.5753 39.7109 11.3175 39.8814 10.9893C40.0561 10.657 40.1435 10.2756 40.1435 9.84517C40.1435 9.41051 40.0561 9.03125 39.8814 8.70739C39.7109 8.37926 39.451 8.12571 39.1016 7.94673C38.7521 7.76349 38.3089 7.67188 37.772 7.67188H35.9055V18.5H33.1378ZM49.0188 18.6918C48.0259 18.6918 47.1673 18.4808 46.4428 18.0589C45.7227 17.6328 45.1665 17.0405 44.7745 16.282C44.3825 15.5192 44.1864 14.6349 44.1864 13.6293C44.1864 12.6151 44.3825 11.7287 44.7745 10.9702C45.1665 10.2074 45.7227 9.61506 46.4428 9.19318C47.1673 8.76705 48.0259 8.55398 49.0188 8.55398C50.0117 8.55398 50.8683 8.76705 51.5884 9.19318C52.3129 9.61506 52.8711 10.2074 53.2631 10.9702C53.6552 11.7287 53.8512 12.6151 53.8512 13.6293C53.8512 14.6349 53.6552 15.5192 53.2631 16.282C52.8711 17.0405 52.3129 17.6328 51.5884 18.0589C50.8683 18.4808 50.0117 18.6918 49.0188 18.6918ZM49.0316 16.5824C49.4833 16.5824 49.8604 16.4545 50.163 16.1989C50.4656 15.9389 50.6935 15.5852 50.8469 15.1378C51.0046 14.6903 51.0835 14.1811 51.0835 13.6101C51.0835 13.0391 51.0046 12.5298 50.8469 12.0824C50.6935 11.6349 50.4656 11.2812 50.163 11.0213C49.8604 10.7614 49.4833 10.6314 49.0316 10.6314C48.5756 10.6314 48.1921 10.7614 47.881 11.0213C47.5742 11.2812 47.342 11.6349 47.1843 12.0824C47.0309 12.5298 46.9542 13.0391 46.9542 13.6101C46.9542 14.1811 47.0309 14.6903 47.1843 15.1378C47.342 15.5852 47.5742 15.9389 47.881 16.1989C48.1921 16.4545 48.5756 16.5824 49.0316 16.5824ZM55.6218 18.5V8.68182H58.2617V10.3949H58.364C58.543 9.78551 58.8434 9.32528 59.2653 9.0142C59.6871 8.69886 60.1729 8.54119 60.7227 8.54119C60.859 8.54119 61.006 8.54972 61.1637 8.56676C61.3214 8.58381 61.4599 8.60724 61.5792 8.63707V11.0533C61.4513 11.0149 61.2745 10.9808 61.0487 10.951C60.8228 10.9212 60.6161 10.9062 60.4286 10.9062C60.0281 10.9062 59.6701 10.9936 59.3548 11.1683C59.0437 11.3388 58.7965 11.5774 58.6133 11.8842C58.4343 12.1911 58.3448 12.5447 58.3448 12.9453V18.5H55.6218ZM68.7015 8.68182V10.7273H62.7889V8.68182H68.7015ZM64.1312 6.32955H66.8542V15.483C66.8542 15.7344 66.8926 15.9304 66.9693 16.071C67.046 16.2074 67.1525 16.3033 67.2889 16.3587C67.4295 16.4141 67.5914 16.4418 67.7747 16.4418C67.9025 16.4418 68.0304 16.4311 68.1582 16.4098C68.286 16.3842 68.3841 16.3651 68.4522 16.3523L68.8805 18.3786C68.7441 18.4212 68.5524 18.4702 68.3052 18.5256C68.0581 18.5852 67.7576 18.6214 67.4039 18.6342C66.7477 18.6598 66.1724 18.5724 65.6781 18.3722C65.188 18.1719 64.8066 17.8608 64.5339 17.4389C64.2612 17.017 64.127 16.4844 64.1312 15.8409V6.32955ZM75.7551 8.68182V10.7273H69.6955V8.68182H75.7551ZM71.0826 18.5V7.9723C71.0826 7.26065 71.2211 6.67045 71.498 6.2017C71.7793 5.73295 72.1628 5.38139 72.6486 5.14702C73.1344 4.91264 73.6863 4.79545 74.3042 4.79545C74.7218 4.79545 75.1032 4.82741 75.4483 4.89134C75.7978 4.95526 76.0577 5.01278 76.2282 5.06392L75.7424 7.10938C75.6358 7.07528 75.5037 7.04332 75.3461 7.01349C75.1926 6.98366 75.035 6.96875 74.873 6.96875C74.4725 6.96875 74.1934 7.0625 74.0357 7.25C73.878 7.43324 73.7992 7.69105 73.7992 8.02344V18.5H71.0826ZM81.5032 18.6918C80.5103 18.6918 79.6516 18.4808 78.9272 18.0589C78.207 17.6328 77.6509 17.0405 77.2589 16.282C76.8668 15.5192 76.6708 14.6349 76.6708 13.6293C76.6708 12.6151 76.8668 11.7287 77.2589 10.9702C77.6509 10.2074 78.207 9.61506 78.9272 9.19318C79.6516 8.76705 80.5103 8.55398 81.5032 8.55398C82.4961 8.55398 83.3526 8.76705 84.0728 9.19318C84.7972 9.61506 85.3555 10.2074 85.7475 10.9702C86.1396 11.7287 86.3356 12.6151 86.3356 13.6293C86.3356 14.6349 86.1396 15.5192 85.7475 16.282C85.3555 17.0405 84.7972 17.6328 84.0728 18.0589C83.3526 18.4808 82.4961 18.6918 81.5032 18.6918ZM81.516 16.5824C81.9677 16.5824 82.3448 16.4545 82.6474 16.1989C82.9499 15.9389 83.1779 15.5852 83.3313 15.1378C83.489 14.6903 83.5678 14.1811 83.5678 13.6101C83.5678 13.0391 83.489 12.5298 83.3313 12.0824C83.1779 11.6349 82.9499 11.2812 82.6474 11.0213C82.3448 10.7614 81.9677 10.6314 81.516 10.6314C81.06 10.6314 80.6765 10.7614 80.3654 11.0213C80.0586 11.2812 79.8263 11.6349 79.6687 12.0824C79.5153 12.5298 79.4386 13.0391 79.4386 13.6101C79.4386 14.1811 79.5153 14.6903 79.6687 15.1378C79.8263 15.5852 80.0586 15.9389 80.3654 16.1989C80.6765 16.4545 81.06 16.5824 81.516 16.5824ZM90.8292 5.40909V18.5H88.1062V5.40909H90.8292ZM93.0105 18.5V8.68182H95.7335V18.5H93.0105ZM94.3784 7.41619C93.9735 7.41619 93.6262 7.28196 93.3365 7.01349C93.051 6.74077 92.9082 6.41477 92.9082 6.03551C92.9082 5.66051 93.051 5.33878 93.3365 5.07031C93.6262 4.79758 93.9735 4.66122 94.3784 4.66122C94.7832 4.66122 95.1284 4.79758 95.4139 5.07031C95.7037 5.33878 95.8485 5.66051 95.8485 6.03551C95.8485 6.41477 95.7037 6.74077 95.4139 7.01349C95.1284 7.28196 94.7832 7.41619 94.3784 7.41619ZM102.351 18.6918C101.358 18.6918 100.499 18.4808 99.7749 18.0589C99.0547 17.6328 98.4986 17.0405 98.1065 16.282C97.7145 15.5192 97.5185 14.6349 97.5185 13.6293C97.5185 12.6151 97.7145 11.7287 98.1065 10.9702C98.4986 10.2074 99.0547 9.61506 99.7749 9.19318C100.499 8.76705 101.358 8.55398 102.351 8.55398C103.344 8.55398 104.2 8.76705 104.92 9.19318C105.645 9.61506 106.203 10.2074 106.595 10.9702C106.987 11.7287 107.183 12.6151 107.183 13.6293C107.183 14.6349 106.987 15.5192 106.595 16.282C106.203 17.0405 105.645 17.6328 104.92 18.0589C104.2 18.4808 103.344 18.6918 102.351 18.6918ZM102.364 16.5824C102.815 16.5824 103.192 16.4545 103.495 16.1989C103.798 15.9389 104.026 15.5852 104.179 15.1378C104.337 14.6903 104.415 14.1811 104.415 13.6101C104.415 13.0391 104.337 12.5298 104.179 12.0824C104.026 11.6349 103.798 11.2812 103.495 11.0213C103.192 10.7614 102.815 10.6314 102.364 10.6314C101.908 10.6314 101.524 10.7614 101.213 11.0213C100.906 11.2812 100.674 11.6349 100.516 12.0824C100.363 12.5298 100.286 13.0391 100.286 13.6101C100.286 14.1811 100.363 14.6903 100.516 15.1378C100.674 15.5852 100.906 15.9389 101.213 16.1989C101.524 16.4545 101.908 16.5824 102.364 16.5824ZM109.005 18.5V5.40909H114.17C115.158 5.40909 116.002 5.58594 116.701 5.93963C117.404 6.28906 117.939 6.78551 118.305 7.42898C118.676 8.06818 118.862 8.82031 118.862 9.68537C118.862 10.5547 118.674 11.3026 118.299 11.929C117.924 12.5511 117.381 13.0284 116.669 13.3608C115.962 13.6932 115.105 13.8594 114.099 13.8594H110.641V11.6349H113.652C114.18 11.6349 114.619 11.5625 114.969 11.4176C115.318 11.2727 115.578 11.0554 115.749 10.7656C115.923 10.4759 116.011 10.1158 116.011 9.68537C116.011 9.25071 115.923 8.88423 115.749 8.58594C115.578 8.28764 115.316 8.06179 114.962 7.90838C114.613 7.75071 114.172 7.67188 113.639 7.67188H111.773V18.5H109.005ZM116.075 12.5426L119.328 18.5H116.273L113.089 12.5426H116.075ZM125.083 18.6918C124.073 18.6918 123.203 18.4872 122.475 18.0781C121.75 17.6648 121.192 17.081 120.8 16.3267C120.408 15.5682 120.212 14.6712 120.212 13.6357C120.212 12.6257 120.408 11.7393 120.8 10.9766C121.192 10.2138 121.744 9.61932 122.455 9.19318C123.171 8.76705 124.011 8.55398 124.974 8.55398C125.622 8.55398 126.225 8.65838 126.783 8.86719C127.345 9.07173 127.835 9.38068 128.253 9.79403C128.675 10.2074 129.003 10.7273 129.237 11.3537C129.472 11.9759 129.589 12.7045 129.589 13.5398V14.2876H121.298V12.6001H127.026C127.026 12.2081 126.941 11.8608 126.77 11.5582C126.6 11.2557 126.363 11.0192 126.061 10.8487C125.762 10.674 125.415 10.5866 125.019 10.5866C124.605 10.5866 124.239 10.6825 123.919 10.8743C123.604 11.0618 123.357 11.3153 123.178 11.6349C122.999 11.9503 122.907 12.3018 122.903 12.6896V14.294C122.903 14.7798 122.992 15.1996 123.171 15.5533C123.355 15.907 123.612 16.1797 123.945 16.3714C124.277 16.5632 124.671 16.6591 125.127 16.6591C125.43 16.6591 125.707 16.6165 125.958 16.5312C126.21 16.446 126.425 16.3182 126.604 16.1477C126.783 15.9773 126.919 15.7685 127.013 15.5213L129.531 15.6875C129.404 16.2926 129.142 16.821 128.745 17.2727C128.353 17.7202 127.846 18.0696 127.224 18.321C126.606 18.5682 125.892 18.6918 125.083 18.6918ZM140.256 8.68182L136.823 18.5H133.755L130.322 8.68182H133.199L135.238 15.7067H135.34L137.373 8.68182H140.256ZM141.649 18.5V8.68182H144.372V18.5H141.649ZM143.017 7.41619C142.612 7.41619 142.265 7.28196 141.975 7.01349C141.69 6.74077 141.547 6.41477 141.547 6.03551C141.547 5.66051 141.69 5.33878 141.975 5.07031C142.265 4.79758 142.612 4.66122 143.017 4.66122C143.422 4.66122 143.767 4.79758 144.053 5.07031C144.342 5.33878 144.487 5.66051 144.487 6.03551C144.487 6.41477 144.342 6.74077 144.053 7.01349C143.767 7.28196 143.422 7.41619 143.017 7.41619ZM151.028 18.6918C150.018 18.6918 149.149 18.4872 148.42 18.0781C147.695 17.6648 147.137 17.081 146.745 16.3267C146.353 15.5682 146.157 14.6712 146.157 13.6357C146.157 12.6257 146.353 11.7393 146.745 10.9766C147.137 10.2138 147.689 9.61932 148.401 9.19318C149.117 8.76705 149.956 8.55398 150.919 8.55398C151.567 8.55398 152.17 8.65838 152.728 8.86719C153.291 9.07173 153.781 9.38068 154.198 9.79403C154.62 10.2074 154.948 10.7273 155.183 11.3537C155.417 11.9759 155.534 12.7045 155.534 13.5398V14.2876H147.244V12.6001H152.971C152.971 12.2081 152.886 11.8608 152.715 11.5582C152.545 11.2557 152.308 11.0192 152.006 10.8487C151.708 10.674 151.36 10.5866 150.964 10.5866C150.551 10.5866 150.184 10.6825 149.865 10.8743C149.549 11.0618 149.302 11.3153 149.123 11.6349C148.944 11.9503 148.852 12.3018 148.848 12.6896V14.294C148.848 14.7798 148.938 15.1996 149.117 15.5533C149.3 15.907 149.558 16.1797 149.89 16.3714C150.222 16.5632 150.617 16.6591 151.073 16.6591C151.375 16.6591 151.652 16.6165 151.904 16.5312C152.155 16.446 152.37 16.3182 152.549 16.1477C152.728 15.9773 152.865 15.7685 152.958 15.5213L155.477 15.6875C155.349 16.2926 155.087 16.821 154.691 17.2727C154.298 17.7202 153.791 18.0696 153.169 18.321C152.551 18.5682 151.838 18.6918 151.028 18.6918ZM159.178 18.5L156.506 8.68182H159.261L160.782 15.2784H160.872L162.457 8.68182H165.161L166.771 15.2401H166.855L168.35 8.68182H171.099L168.433 18.5H165.551L163.863 12.3253H163.742L162.054 18.5H159.178ZM172.807 18.6662C172.385 18.6662 172.023 18.517 171.721 18.2188C171.422 17.9162 171.273 17.554 171.273 17.1321C171.273 16.7145 171.422 16.3565 171.721 16.0582C172.023 15.7599 172.385 15.6108 172.807 15.6108C173.216 15.6108 173.574 15.7599 173.881 16.0582C174.188 16.3565 174.341 16.7145 174.341 17.1321C174.341 17.4134 174.269 17.6712 174.124 17.9055C173.983 18.1357 173.798 18.321 173.568 18.4616C173.338 18.598 173.084 18.6662 172.807 18.6662ZM179.377 18.6854C178.75 18.6854 178.192 18.5767 177.702 18.3594C177.212 18.1378 176.824 17.8118 176.539 17.3814C176.257 16.9467 176.117 16.4055 176.117 15.7578C176.117 15.2124 176.217 14.7543 176.417 14.3835C176.617 14.0128 176.89 13.7145 177.235 13.4886C177.58 13.2628 177.972 13.0923 178.411 12.9773C178.855 12.8622 179.319 12.7812 179.805 12.7344C180.376 12.6747 180.836 12.6193 181.186 12.5682C181.535 12.5128 181.789 12.4318 181.946 12.3253C182.104 12.2187 182.183 12.0611 182.183 11.8523V11.8139C182.183 11.4091 182.055 11.0959 181.799 10.8743C181.548 10.6527 181.19 10.5419 180.725 10.5419C180.235 10.5419 179.845 10.6506 179.556 10.8679C179.266 11.081 179.074 11.3494 178.98 11.6733L176.462 11.4688C176.59 10.8722 176.841 10.3565 177.216 9.92188C177.591 9.48295 178.075 9.14631 178.667 8.91193C179.264 8.6733 179.954 8.55398 180.738 8.55398C181.284 8.55398 181.806 8.6179 182.304 8.74574C182.807 8.87358 183.252 9.07173 183.64 9.3402C184.032 9.60866 184.341 9.95384 184.567 10.3757C184.793 10.7933 184.906 11.294 184.906 11.8778V18.5H182.323V17.1385H182.247C182.089 17.4453 181.878 17.7159 181.614 17.9503C181.35 18.1804 181.032 18.3615 180.661 18.4936C180.291 18.6214 179.862 18.6854 179.377 18.6854ZM180.156 16.8061C180.557 16.8061 180.911 16.7273 181.218 16.5696C181.524 16.4077 181.765 16.1903 181.94 15.9176C182.115 15.6449 182.202 15.3359 182.202 14.9908V13.9489C182.117 14.0043 181.999 14.0554 181.85 14.1023C181.705 14.1449 181.541 14.1854 181.358 14.2237C181.175 14.2578 180.992 14.2898 180.808 14.3196C180.625 14.3452 180.459 14.3686 180.31 14.3899C179.99 14.4368 179.711 14.5114 179.472 14.6136C179.234 14.7159 179.048 14.8544 178.916 15.0291C178.784 15.1996 178.718 15.4126 178.718 15.6683C178.718 16.0391 178.852 16.3224 179.121 16.5185C179.394 16.7102 179.739 16.8061 180.156 16.8061ZM187.018 18.5V8.68182H189.741V18.5H187.018ZM188.386 7.41619C187.981 7.41619 187.634 7.28196 187.344 7.01349C187.059 6.74077 186.916 6.41477 186.916 6.03551C186.916 5.66051 187.059 5.33878 187.344 5.07031C187.634 4.79758 187.981 4.66122 188.386 4.66122C188.791 4.66122 189.136 4.79758 189.422 5.07031C189.711 5.33878 189.856 5.66051 189.856 6.03551C189.856 6.41477 189.711 6.74077 189.422 7.01349C189.136 7.28196 188.791 7.41619 188.386 7.41619Z" fill="#121417"/>
<defs>
<clipPath id="clip0_1_5874">
<rect width="16" height="16" fill="white" transform="translate(0 4)"/>
</clipPath>
</defs>
</svg>

